<svg width="40" height="40" viewBox="0 0 40 40" fill="none" xmlns="http://www.w3.org/2000/svg">
  <path fill="#888888"
        d="M 20,0 H 32 V 20 H 8 v -8 h 12 z" />
  <path fill="#7700ff"
        d="M 0,24 V 40 H 40 V 24 Z m 11,2 h 2 v 9 l 1,1 h 2 l 1,-1 v -9 h 2 v 10 l -2,2 h -4 l -2,-2 z m 10,0 h 2 l 4,1 2,2 v 6 l -2,2 -4,1 h -2 z m 10,0 h 2 v 10 h 5 v 2 h -7 z m -8,2 v 8 h 1 l 2,-1 1,-1 V 30 L 26,29 24,28 Z M 4,34 h 2 l 1,1 v 2 L 6,38 H 4 L 3,37 v -2 z" />
  <path fill="#888888"
        d="M 15,0 8,7 v 2 h 9 V 0 Z" />
</svg>
